<svg width="50" height="50" viewBox="0 0 50 50" fill="none" xmlns="http://www.w3.org/2000/svg">
<path d="M49.5014 19.9631C46.441 17.9498 42.7086 17.6639 39.5174 19.1981C37.9278 19.9622 36.6088 21.1146 35.6418 22.5284C35.3397 21.9745 34.9839 21.448 34.5738 20.9601C34.3135 20.6504 33.8515 20.6103 33.5419 20.8706C33.2322 21.131 33.1922 21.5929 33.4525 21.9026C34.5819 23.2461 35.241 24.9264 35.3342 26.6744C34.8088 26.5845 34.2692 26.5371 33.7187 26.5371C30.2961 26.5371 27.2893 28.3472 25.602 31.0596C24.1999 28.8054 21.886 27.1745 19.1795 26.6878C19.3966 22.4201 22.9372 19.0148 27.258 19.0148C28.5757 19.0148 29.8326 19.3219 30.9937 19.9277C31.352 20.1148 31.7947 19.9757 31.9818 19.6171C32.1689 19.2585 32.0298 18.8161 31.6712 18.6289C31.0757 18.3183 30.4468 18.0723 29.7985 17.894C29.8534 17.3995 29.882 16.899 29.882 16.3938C29.882 11.5382 27.3049 7.10101 22.9886 4.52426C22.6109 4.29857 22.1415 4.29857 21.7638 4.52416C17.4473 7.10101 14.8704 11.5382 14.8704 16.3938C14.8704 16.857 14.8945 17.3161 14.9407 17.7704C14.3545 17.3483 13.7279 16.9732 13.0626 16.6534C11.9611 16.1239 10.7904 15.762 9.58307 15.5779C9.18297 15.5166 8.80953 15.7915 8.74859 16.1914C8.68756 16.5913 8.96226 16.9649 9.36217 17.0259C10.4259 17.1882 11.4574 17.507 12.4279 17.9736C13.536 18.5063 14.5252 19.2109 15.3737 20.0513C15.8785 21.8472 16.7515 23.5196 17.9423 24.9791C17.882 25.2437 17.8332 25.5125 17.7954 25.7849L15.3859 24.6267L13.8755 20.3202C13.7417 19.9384 13.3237 19.7374 12.942 19.8714C12.5603 20.0053 12.3594 20.4232 12.4933 20.8049L13.5188 23.7292L10.4673 22.2623L9.45055 19.3632C9.31666 18.9815 8.89869 18.7805 8.51705 18.9145C8.13531 19.0484 7.93443 19.4662 8.06832 19.848L8.60025 21.3649L6.36939 20.2925C6.00484 20.1174 5.56724 20.2708 5.39195 20.6353C5.21676 20.9998 5.37017 21.4374 5.73472 21.6127L7.96568 22.6852L6.44879 23.2171C6.06705 23.351 5.86617 23.769 5.99996 24.1507C6.10572 24.4523 6.38873 24.641 6.69117 24.641C6.77154 24.641 6.85338 24.6276 6.93355 24.5995L9.83277 23.5828L12.8842 25.0496L9.95992 26.0752C9.57818 26.2091 9.3773 26.627 9.51119 27.0087C9.61695 27.3103 9.89986 27.499 10.2023 27.499C10.2827 27.499 10.3645 27.4856 10.4447 27.4575L14.7513 25.9471L16.1682 26.6283C14.3295 26.8827 12.6564 27.6621 11.3055 28.8101C10.0728 28.6825 8.85806 28.3454 7.70797 27.7925C4.22008 26.116 1.90035 22.7449 1.47896 18.7544C2.9024 17.8445 4.51646 17.2426 6.15689 17.0115C6.55748 16.955 6.83638 16.5845 6.77994 16.1839C6.72349 15.7834 6.35328 15.5048 5.9524 15.5609C4.04898 15.8292 2.17896 16.5393 0.54449 17.6146C0.170466 17.8607 -0.0361744 18.2905 0.00523181 18.7365C0.43072 23.3108 3.07301 27.1898 7.0733 29.1127C8.03248 29.5738 9.03082 29.9009 10.047 30.1009C8.72359 31.7407 7.92994 33.8247 7.92994 36.0911C7.92994 41.3592 12.2158 45.6451 17.4838 45.6451C20.9069 45.6451 23.9146 43.8352 25.602 41.1226C27.2894 43.835 30.2961 45.6452 33.7187 45.6452C35.8625 45.6452 37.8885 44.951 39.5778 43.6376C39.8971 43.3894 39.9547 42.9292 39.7064 42.6099C39.4581 42.2906 38.9978 42.2331 38.6787 42.4813C37.2489 43.5928 35.5337 44.1804 33.7187 44.1804C30.4864 44.1804 27.6927 42.2736 26.3985 39.5266C26.8109 38.46 27.0378 37.3017 27.0378 36.0912C27.0378 34.8808 26.811 33.7226 26.3985 32.6559C27.6926 29.9089 30.4863 28.0022 33.7187 28.0022C38.1791 28.0022 41.8078 31.6309 41.8078 36.0912C41.8078 37.503 41.4389 38.8924 40.7409 40.1093C40.5396 40.4602 40.661 40.9077 41.0118 41.109C41.3629 41.3103 41.8103 41.189 42.0115 40.8381C42.8365 39.3997 43.2725 37.7583 43.2725 36.0912C43.2725 33.859 42.5027 31.8033 41.215 30.175C42.2906 30.0503 43.3506 29.7487 44.3566 29.2652C47.5481 27.7311 49.6559 24.6376 49.9951 20.9906C50.0331 20.5821 49.844 20.1884 49.5014 19.9631ZM16.3351 16.3938C16.3351 12.1111 18.5903 8.18715 22.376 5.86576C26.1622 8.18705 28.417 12.1108 28.417 16.3938C28.417 16.8043 28.3936 17.211 28.3527 17.6138C27.9896 17.5718 27.624 17.5499 27.2578 17.5499C25.7717 17.5499 24.364 17.8911 23.1085 18.499V16.4646L25.5103 14.0628C25.7963 13.7768 25.7963 13.313 25.5103 13.0271C25.2243 12.741 24.7606 12.7411 24.4746 13.0271L23.1086 14.3931V11.5101C23.1086 11.1056 22.7806 10.7777 22.3761 10.7777C21.9716 10.7777 21.6437 11.1056 21.6437 11.5101V14.3931L20.2777 13.0271C19.9917 12.7411 19.5279 12.7411 19.242 13.0271C18.9559 13.3131 18.9559 13.7769 19.242 14.0628L21.6437 16.4646V19.3786C21.4524 19.518 21.2665 19.6643 21.0862 19.8171L19.1217 17.8527C18.8358 17.5666 18.372 17.5666 18.086 17.8527C17.8 18.1387 17.8 18.6025 18.086 18.8884L20.044 20.8465C19.4139 21.5719 18.8918 22.3932 18.5013 23.2848C17.1059 21.2757 16.3351 18.8964 16.3351 16.3938ZM17.4837 44.1801C13.0233 44.1801 9.39459 40.5514 9.39459 36.0911C9.39459 31.6307 13.0233 28.002 17.4837 28.002C21.944 28.002 25.5727 31.6307 25.5727 36.0911C25.5727 40.5514 21.944 44.1801 17.4837 44.1801ZM43.7219 27.9447C42.495 28.5345 41.1726 28.806 39.8496 28.7701C39.1024 28.1433 38.2585 27.6287 37.3435 27.2522L38.2688 26.8074L41.5889 27.9717C41.6691 27.9998 41.7509 28.0132 41.8313 28.0132C42.1338 28.0132 42.4167 27.8244 42.5224 27.523C42.6563 27.1412 42.4553 26.7234 42.0737 26.5895L40.1358 25.9098L42.1308 24.9507L44.3458 25.7276C44.4259 25.7557 44.5078 25.7691 44.5881 25.7691C44.8906 25.7691 45.1735 25.5803 45.2793 25.2788C45.4131 24.8971 45.2122 24.4792 44.8305 24.3454L43.9977 24.0533L45.4072 23.3757C45.7717 23.2004 45.9253 22.7628 45.7501 22.3983C45.5747 22.0336 45.1367 21.8803 44.7726 22.0555L43.3631 22.733L43.6551 21.9004C43.789 21.5187 43.588 21.1007 43.2064 20.9668C42.8244 20.8327 42.4068 21.0339 42.2728 21.4156L41.496 23.6306L39.5009 24.5896L40.1805 22.6517C40.3144 22.27 40.1134 21.8521 39.7318 21.7181C39.3499 21.5844 38.9321 21.7853 38.7982 22.1669L37.6338 25.487L36.736 25.9186C36.6619 25.3272 36.5331 24.7455 36.3516 24.1811C37.1935 22.5961 38.5026 21.3108 40.1516 20.5181C42.8125 19.239 45.9222 19.448 48.5136 21.0697C48.162 24.1063 46.3828 26.6656 43.7219 27.9447Z" fill="white"/>
<path d="M24.1052 22.2996C24.1052 23.5231 25.5082 24.4815 27.2992 24.4815C29.0901 24.4815 30.493 23.5231 30.493 22.2996C30.493 21.0761 29.0901 20.1177 27.2992 20.1177C25.5081 20.1177 24.1052 21.0762 24.1052 22.2996ZM29.0281 22.2996C29.0281 22.5458 28.3547 23.0167 27.2991 23.0167C26.2434 23.0167 25.57 22.5458 25.57 22.2996C25.57 22.0534 26.2434 21.5825 27.2991 21.5825C28.3547 21.5825 29.0281 22.0534 29.0281 22.2996Z" fill="white"/>
<path d="M30.2063 33.8292C30.2063 36.3112 32.2255 38.3304 34.7076 38.3304C37.1896 38.3304 39.2087 36.3111 39.2087 33.8292C39.2087 31.3472 37.1895 29.328 34.7075 29.328C32.2254 29.328 30.2063 31.3471 30.2063 33.8292ZM37.7439 33.8292C37.7439 35.5035 36.3818 36.8656 34.7075 36.8656C33.0332 36.8656 31.671 35.5035 31.671 33.8292C31.671 32.1549 33.0332 30.7928 34.7075 30.7928C36.3818 30.7928 37.7439 32.1549 37.7439 33.8292Z" fill="white"/>
<path d="M33.9752 32.5354V32.957L33.5727 32.8268C33.1883 32.7025 32.7749 32.9133 32.6505 33.2984C32.526 33.6832 32.7371 34.0961 33.122 34.2206L33.5227 34.3502L33.2741 34.693C33.0366 35.0204 33.1096 35.4783 33.437 35.7158C33.5669 35.8101 33.7174 35.8554 33.8664 35.8554C34.0931 35.8554 34.3166 35.7505 34.4599 35.5529L34.7076 35.2112L34.9555 35.5529C35.0987 35.7504 35.3223 35.8553 35.5489 35.8553C35.698 35.8553 35.8484 35.81 35.9783 35.7157C36.3059 35.4782 36.3787 35.0202 36.1412 34.6928L35.8927 34.3501L36.2933 34.2205C36.6781 34.096 36.8894 33.6831 36.7647 33.2983C36.6403 32.9134 36.2272 32.7022 35.8426 32.8267L35.44 32.9569V32.5353C35.44 32.1308 35.1122 31.8029 34.7076 31.8029C34.303 31.8029 33.9752 32.1309 33.9752 32.5354Z" fill="white"/>
<path d="M15.8201 33.7009C13.3381 33.7009 11.3188 35.7202 11.3188 38.2022C11.3188 40.6842 13.3381 42.7035 15.8201 42.7035C18.3021 42.7035 20.3214 40.6842 20.3214 38.2022C20.3214 35.7202 18.3021 33.7009 15.8201 33.7009ZM15.8201 41.2386C14.1458 41.2386 12.7837 39.8765 12.7837 38.2022C12.7837 36.5279 14.1458 35.1658 15.8201 35.1658C17.4944 35.1658 18.8565 36.5279 18.8565 38.2022C18.8565 39.8765 17.4944 41.2386 15.8201 41.2386Z" fill="white"/>
<path d="M16.9552 37.1999L16.5527 37.33V36.9084C16.5527 36.504 16.2247 36.176 15.8202 36.176C15.4157 36.176 15.0878 36.504 15.0878 36.9084V37.33L14.6853 37.1999C14.3003 37.0752 13.8875 37.2866 13.763 37.6714C13.6386 38.0563 13.8496 38.4692 14.2346 38.5937L14.6352 38.7233L14.3866 39.066C14.1491 39.3934 14.2221 39.8514 14.5495 40.0889C14.6794 40.1832 14.8299 40.2285 14.9789 40.2285C15.2056 40.2285 15.4292 40.1236 15.5725 39.926L15.8203 39.5843L16.0682 39.926C16.2114 40.1236 16.435 40.2285 16.6617 40.2285C16.8108 40.2285 16.9613 40.1832 17.0911 40.0889C17.4186 39.8514 17.4915 39.3934 17.254 39.066L17.0055 38.7233L17.4061 38.5937C17.7909 38.4692 18.0021 38.0563 17.8777 37.6714C17.753 37.2866 17.3402 37.0752 16.9552 37.1999Z" fill="white"/>
</svg>
