<svg width="50" height="42" viewBox="0 0 50 42" fill="none" xmlns="http://www.w3.org/2000/svg">
<path d="M49.5014 15.9631C46.441 13.9498 42.7086 13.6638 39.5174 15.198C37.9278 15.9622 36.6088 17.1145 35.6418 18.5283C35.3397 17.9745 34.9839 17.4479 34.5738 16.96C34.3135 16.6504 33.8515 16.6102 33.5419 16.8706C33.2322 17.1309 33.1922 17.5928 33.4525 17.9025C34.5819 19.2461 35.241 20.9263 35.3342 22.6743C34.8088 22.5844 34.2692 22.537 33.7187 22.537C30.2961 22.537 27.2893 24.3471 25.602 27.0595C24.1999 24.8053 21.886 23.1745 19.1795 22.6878C19.3966 18.42 22.9372 15.0147 27.258 15.0147C28.5757 15.0147 29.8326 15.3219 30.9937 15.9276C31.352 16.1147 31.7947 15.9757 31.9818 15.6171C32.1689 15.2585 32.0298 14.816 31.6712 14.6289C31.0757 14.3182 30.4468 14.0722 29.7985 13.8939C29.8534 13.3994 29.882 12.8989 29.882 12.3937C29.882 7.53816 27.3049 3.10095 22.9886 0.524194C22.6109 0.298511 22.1415 0.298511 21.7638 0.524097C17.4473 3.10095 14.8704 7.53816 14.8704 12.3937C14.8704 12.8569 14.8945 13.3161 14.9407 13.7704C14.3545 13.3482 13.7279 12.9731 13.0626 12.6533C11.9611 12.1238 10.7904 11.762 9.58307 11.5778C9.18297 11.5166 8.80953 11.7915 8.74859 12.1914C8.68756 12.5913 8.96226 12.9648 9.36217 13.0259C10.4259 13.1882 11.4574 13.5069 12.4279 13.9735C13.536 14.5062 14.5252 15.2108 15.3737 16.0512C15.8785 17.8471 16.7515 19.5195 17.9423 20.9791C17.882 21.2436 17.8332 21.5125 17.7954 21.7848L15.3859 20.6266L13.8755 16.3201C13.7417 15.9384 13.3237 15.7374 12.942 15.8714C12.5603 16.0052 12.3594 16.4231 12.4933 16.8049L13.5188 19.7292L10.4673 18.2623L9.45055 15.3632C9.31666 14.9814 8.89869 14.7804 8.51705 14.9144C8.13531 15.0483 7.93443 15.4662 8.06832 15.8479L8.60025 17.3648L6.36939 16.2925C6.00484 16.1174 5.56724 16.2708 5.39195 16.6352C5.21676 16.9998 5.37017 17.4374 5.73472 17.6127L7.96568 18.6851L6.44879 19.2171C6.06705 19.351 5.86617 19.7689 5.99996 20.1507C6.10572 20.4522 6.38873 20.6409 6.69117 20.6409C6.77154 20.6409 6.85338 20.6275 6.93355 20.5995L9.83277 19.5827L12.8842 21.0496L9.95992 22.0752C9.57818 22.2091 9.3773 22.6269 9.51119 23.0087C9.61695 23.3102 9.89986 23.4989 10.2023 23.4989C10.2827 23.4989 10.3645 23.4855 10.4447 23.4574L14.7513 21.947L16.1682 22.6282C14.3295 22.8826 12.6564 23.662 11.3055 24.81C10.0728 24.6824 8.85806 24.3454 7.70797 23.7925C4.22008 22.1159 1.90035 18.7448 1.47896 14.7544C2.9024 13.8444 4.51646 13.2426 6.15689 13.0114C6.55748 12.955 6.83638 12.5844 6.77994 12.1839C6.72349 11.7834 6.35328 11.5048 5.9524 11.5608C4.04898 11.8292 2.17896 12.5392 0.54449 13.6145C0.170466 13.8606 -0.0361744 14.2904 0.00523181 14.7364C0.43072 19.3107 3.07301 23.1897 7.0733 25.1127C8.03248 25.5737 9.03082 25.9009 10.047 26.1009C8.72359 27.7406 7.92994 29.8247 7.92994 32.0911C7.92994 37.3592 12.2158 41.645 17.4838 41.645C20.9069 41.645 23.9146 39.8351 25.602 37.1225C27.2894 39.8349 30.2961 41.6451 33.7187 41.6451C35.8625 41.6451 37.8885 40.951 39.5778 39.6376C39.8971 39.3893 39.9547 38.9292 39.7064 38.6098C39.4581 38.2905 38.9978 38.2331 38.6787 38.4812C37.2489 39.5927 35.5337 40.1803 33.7187 40.1803C30.4864 40.1803 27.6927 38.2735 26.3985 35.5265C26.8109 34.4599 27.0378 33.3016 27.0378 32.0912C27.0378 30.8807 26.811 29.7225 26.3985 28.6558C27.6926 25.9089 30.4863 24.0021 33.7187 24.0021C38.1791 24.0021 41.8078 27.6308 41.8078 32.0912C41.8078 33.5029 41.4389 34.8924 40.7409 36.1093C40.5396 36.4601 40.661 36.9077 41.0118 37.109C41.3629 37.3102 41.8103 37.1889 42.0115 36.8381C42.8365 35.3997 43.2725 33.7583 43.2725 32.0912C43.2725 29.859 42.5027 27.8032 41.215 26.175C42.2906 26.0503 43.3506 25.7486 44.3566 25.2651C47.5481 23.731 49.6559 20.6376 49.9951 16.9905C50.0331 16.582 49.844 16.1884 49.5014 15.9631ZM16.3351 12.3937C16.3351 8.11101 18.5903 4.18708 22.376 1.8657C26.1622 4.18699 28.417 8.11072 28.417 12.3937C28.417 12.8043 28.3936 13.2109 28.3527 13.6137C27.9896 13.5718 27.624 13.5499 27.2578 13.5499C25.7717 13.5499 24.364 13.891 23.1085 14.4989V12.4645L25.5103 10.0628C25.7963 9.77673 25.7963 9.31296 25.5103 9.02703C25.2243 8.74089 24.7606 8.74099 24.4746 9.02703L23.1086 10.393V7.51003C23.1086 7.10554 22.7806 6.77761 22.3761 6.77761C21.9716 6.77761 21.6437 7.10554 21.6437 7.51003V10.393L20.2777 9.02703C19.9917 8.74099 19.5279 8.74099 19.242 9.02703C18.9559 9.31306 18.9559 9.77683 19.242 10.0628L21.6437 12.4645V15.3785C21.4524 15.5179 21.2665 15.6642 21.0862 15.8171L19.1217 13.8526C18.8358 13.5666 18.372 13.5666 18.086 13.8526C17.8 14.1386 17.8 14.6024 18.086 14.8884L20.044 16.8465C19.4139 17.5719 18.8918 18.3931 18.5013 19.2847C17.1059 17.2757 16.3351 14.8964 16.3351 12.3937ZM17.4837 40.1801C13.0233 40.1801 9.39459 36.5513 9.39459 32.091C9.39459 27.6306 13.0233 24.0019 17.4837 24.0019C21.944 24.0019 25.5727 27.6306 25.5727 32.091C25.5727 36.5513 21.944 40.1801 17.4837 40.1801ZM43.7219 23.9446C42.495 24.5345 41.1726 24.8059 39.8496 24.77C39.1024 24.1432 38.2585 23.6287 37.3435 23.2521L38.2688 22.8073L41.5889 23.9717C41.6691 23.9998 41.7509 24.0132 41.8313 24.0132C42.1338 24.0132 42.4167 23.8244 42.5224 23.5229C42.6563 23.1412 42.4553 22.7233 42.0737 22.5894L40.1358 21.9097L42.1308 20.9507L44.3458 21.7275C44.4259 21.7556 44.5078 21.769 44.5881 21.769C44.8906 21.769 45.1735 21.5802 45.2793 21.2788C45.4131 20.897 45.2122 20.4792 44.8305 20.3453L43.9977 20.0532L45.4072 19.3757C45.7717 19.2004 45.9253 18.7628 45.7501 18.3982C45.5747 18.0336 45.1367 17.8803 44.7726 18.0554L43.3631 18.733L43.6551 17.9004C43.789 17.5186 43.588 17.1007 43.2064 16.9668C42.8244 16.8326 42.4068 17.0339 42.2728 17.4155L41.496 19.6305L39.5009 20.5895L40.1805 18.6516C40.3144 18.2699 40.1134 17.852 39.7318 17.718C39.3499 17.5844 38.9321 17.7852 38.7982 18.1669L37.6338 21.487L36.736 21.9185C36.6619 21.3271 36.5331 20.7455 36.3516 20.181C37.1935 18.5961 38.5026 17.3107 40.1516 16.518C42.8125 15.2389 45.9222 15.4479 48.5136 17.0696C48.162 20.1062 46.3828 22.6655 43.7219 23.9446Z" fill="#132146"/>
<path d="M24.1052 18.2996C24.1052 19.5231 25.5082 20.4815 27.2992 20.4815C29.0901 20.4815 30.493 19.5231 30.493 18.2996C30.493 17.076 29.0901 16.1176 27.2992 16.1176C25.5081 16.1176 24.1052 17.0761 24.1052 18.2996ZM29.0281 18.2996C29.0281 18.5458 28.3547 19.0167 27.2991 19.0167C26.2434 19.0167 25.57 18.5458 25.57 18.2996C25.57 18.0534 26.2434 17.5825 27.2991 17.5825C28.3547 17.5825 29.0281 18.0534 29.0281 18.2996Z" fill="#132146"/>
<path d="M30.2063 29.8291C30.2063 32.3111 32.2255 34.3304 34.7076 34.3304C37.1896 34.3304 39.2087 32.311 39.2087 29.8291C39.2087 27.3472 37.1895 25.3279 34.7075 25.3279C32.2254 25.3279 30.2063 27.3471 30.2063 29.8291ZM37.7439 29.8291C37.7439 31.5034 36.3818 32.8655 34.7075 32.8655C33.0332 32.8655 31.671 31.5034 31.671 29.8291C31.671 28.1548 33.0332 26.7928 34.7075 26.7928C36.3818 26.7928 37.7439 28.1548 37.7439 29.8291Z" fill="#132146"/>
<path d="M33.9752 28.5353V28.9569L33.5727 28.8267C33.1883 28.7024 32.7749 28.9132 32.6505 29.2983C32.526 29.6832 32.7371 30.0961 33.122 30.2206L33.5227 30.3502L33.2741 30.6929C33.0366 31.0204 33.1096 31.4783 33.437 31.7158C33.5669 31.81 33.7174 31.8553 33.8664 31.8553C34.0931 31.8553 34.3166 31.7504 34.4599 31.5528L34.7076 31.2111L34.9555 31.5528C35.0987 31.7503 35.3223 31.8552 35.5489 31.8552C35.698 31.8552 35.8484 31.8099 35.9783 31.7157C36.3059 31.4782 36.3787 31.0202 36.1412 30.6927L35.8927 30.3501L36.2933 30.2205C36.6781 30.096 36.8894 29.6831 36.7647 29.2982C36.6403 28.9133 36.2272 28.7021 35.8426 28.8266L35.44 28.9568V28.5352C35.44 28.1307 35.1122 27.8028 34.7076 27.8028C34.303 27.8028 33.9752 28.1308 33.9752 28.5353Z" fill="#132146"/>
<path d="M15.8201 29.7009C13.3381 29.7009 11.3188 31.7201 11.3188 34.2021C11.3188 36.6842 13.3381 38.7034 15.8201 38.7034C18.3021 38.7034 20.3214 36.6842 20.3214 34.2021C20.3214 31.7201 18.3021 29.7009 15.8201 29.7009ZM15.8201 37.2386C14.1458 37.2386 12.7837 35.8765 12.7837 34.2021C12.7837 32.5278 14.1458 31.1657 15.8201 31.1657C17.4944 31.1657 18.8565 32.5278 18.8565 34.2021C18.8565 35.8765 17.4944 37.2386 15.8201 37.2386Z" fill="#132146"/>
<path d="M16.9552 33.1998L16.5527 33.33V32.9084C16.5527 32.5039 16.2247 32.176 15.8202 32.176C15.4157 32.176 15.0878 32.5039 15.0878 32.9084V33.33L14.6853 33.1998C14.3003 33.0752 13.8875 33.2865 13.763 33.6714C13.6386 34.0562 13.8496 34.4691 14.2346 34.5936L14.6352 34.7232L14.3866 35.0659C14.1491 35.3933 14.2221 35.8514 14.5495 36.0889C14.6794 36.1831 14.8299 36.2284 14.9789 36.2284C15.2056 36.2284 15.4292 36.1235 15.5725 35.926L15.8203 35.5843L16.0682 35.926C16.2114 36.1235 16.435 36.2284 16.6617 36.2284C16.8108 36.2284 16.9613 36.1831 17.0911 36.0889C17.4186 35.8514 17.4915 35.3933 17.254 35.0659L17.0055 34.7232L17.4061 34.5936C17.7909 34.4691 18.0021 34.0562 17.8777 33.6714C17.753 33.2865 17.3402 33.0752 16.9552 33.1998Z" fill="#132146"/>
</svg>
